<svg xmlns="http://www.w3.org/2000/svg" version="1.1" xmlns:xlink="http://www.w3.org/1999/xlink" xmlns:svgjs="http://svgjs.com/svgjs" width="1440" height="560" preserveAspectRatio="none" viewBox="0 0 1440 560">
    <g mask="url(&quot;#SvgjsMask1028&quot;)" fill="none">
        <path d="M-112.26 390.98L-112.26 390.98" stroke="rgba(255, 255, 255, 0.15)" stroke-width="1.5"></path>
        <path d="M-112.26 390.98L-58.41 507.55" stroke="rgba(255, 255, 255, 0.15)" stroke-width="1.5"></path>
        <path d="M-112.26 390.98L66.16 395.01" stroke="rgba(255, 255, 255, 0.15)" stroke-width="1.5"></path>
        <path d="M-112.26 390.98L-99.75 697.93" stroke="rgba(255, 255, 255, 0.15)" stroke-width="1.5"></path>
        <path d="M-112.26 390.98L201.59 400.96" stroke="rgba(255, 255, 255, 0.15)" stroke-width="1.5"></path>
        <path d="M-58.41 507.55L-58.41 507.55" stroke="rgba(255, 255, 255, 0.15)" stroke-width="1.5"></path>
        <path d="M-58.41 507.55L66.16 395.01" stroke="rgba(255, 255, 255, 0.15)" stroke-width="1.5"></path>
        <path d="M-58.41 507.55L-99.75 697.93" stroke="rgba(255, 255, 255, 0.15)" stroke-width="1.5"></path>
        <path d="M-99.75 697.93L-99.75 697.93" stroke="rgba(255, 255, 255, 0.15)" stroke-width="1.5"></path>
        <path d="M-99.75 697.93L63.91 684.73" stroke="rgba(255, 255, 255, 0.15)" stroke-width="1.5"></path>
        <path d="M-99.75 697.93L66.16 395.01" stroke="rgba(255, 255, 255, 0.15)" stroke-width="1.5"></path>
        <path d="M-99.75 697.93L249.25 643.64" stroke="rgba(255, 255, 255, 0.15)" stroke-width="1.5"></path>
        <path d="M66.16 395.01L66.16 395.01" stroke="rgba(255, 255, 255, 0.15)" stroke-width="1.5"></path>
        <path d="M66.16 395.01L201.59 400.96" stroke="rgba(255, 255, 255, 0.15)" stroke-width="1.5"></path>
        <path d="M63.91 684.73L63.91 684.73" stroke="rgba(255, 255, 255, 0.15)" stroke-width="1.5"></path>
        <path d="M63.91 684.73L249.25 643.64" stroke="rgba(255, 255, 255, 0.15)" stroke-width="1.5"></path>
        <path d="M201.59 400.96L201.59 400.96" stroke="rgba(255, 255, 255, 0.15)" stroke-width="1.5"></path>
        <path d="M201.59 400.96L253.01 522.27" stroke="rgba(255, 255, 255, 0.15)" stroke-width="1.5"></path>
        <path d="M201.59 400.96L380.03 493.79" stroke="rgba(255, 255, 255, 0.15)" stroke-width="1.5"></path>
        <path d="M201.59 400.96L249.25 643.64" stroke="rgba(255, 255, 255, 0.15)" stroke-width="1.5"></path>
        <path d="M253.01 522.27L253.01 522.27" stroke="rgba(255, 255, 255, 0.15)" stroke-width="1.5"></path>
        <path d="M253.01 522.27L249.25 643.64" stroke="rgba(255, 255, 255, 0.15)" stroke-width="1.5"></path>
        <path d="M249.25 643.64L249.25 643.64" stroke="rgba(255, 255, 255, 0.15)" stroke-width="1.5"></path>
        <path d="M249.25 643.64L377.6 648.55" stroke="rgba(255, 255, 255, 0.15)" stroke-width="1.5"></path>
        <path d="M249.25 643.64L380.03 493.79" stroke="rgba(255, 255, 255, 0.15)" stroke-width="1.5"></path>
        <path d="M380.03 493.79L380.03 493.79" stroke="rgba(255, 255, 255, 0.15)" stroke-width="1.5"></path>
        <path d="M380.03 493.79L497.51 547.02" stroke="rgba(255, 255, 255, 0.15)" stroke-width="1.5"></path>
        <path d="M380.03 493.79L253.01 522.27" stroke="rgba(255, 255, 255, 0.15)" stroke-width="1.5"></path>
        <path d="M380.03 493.79L377.6 648.55" stroke="rgba(255, 255, 255, 0.15)" stroke-width="1.5"></path>
        <path d="M380.03 493.79L521.96 367.07" stroke="rgba(255, 255, 255, 0.15)" stroke-width="1.5"></path>
        <path d="M377.6 648.55L377.6 648.55" stroke="rgba(255, 255, 255, 0.15)" stroke-width="1.5"></path>
        <path d="M377.6 648.55L502.89 664.18" stroke="rgba(255, 255, 255, 0.15)" stroke-width="1.5"></path>
        <path d="M521.96 367.07L521.96 367.07" stroke="rgba(255, 255, 255, 0.15)" stroke-width="1.5"></path>
        <path d="M521.96 367.07L655.44 374.5" stroke="rgba(255, 255, 255, 0.15)" stroke-width="1.5"></path>
        <path d="M521.96 367.07L497.51 547.02" stroke="rgba(255, 255, 255, 0.15)" stroke-width="1.5"></path>
        <path d="M497.51 547.02L497.51 547.02" stroke="rgba(255, 255, 255, 0.15)" stroke-width="1.5"></path>
        <path d="M497.51 547.02L502.89 664.18" stroke="rgba(255, 255, 255, 0.15)" stroke-width="1.5"></path>
        <path d="M497.51 547.02L377.6 648.55" stroke="rgba(255, 255, 255, 0.15)" stroke-width="1.5"></path>
        <path d="M497.51 547.02L637.52 699.27" stroke="rgba(255, 255, 255, 0.15)" stroke-width="1.5"></path>
        <path d="M497.51 547.02L655.44 374.5" stroke="rgba(255, 255, 255, 0.15)" stroke-width="1.5"></path>
        <path d="M502.89 664.18L502.89 664.18" stroke="rgba(255, 255, 255, 0.15)" stroke-width="1.5"></path>
        <path d="M502.89 664.18L637.52 699.27" stroke="rgba(255, 255, 255, 0.15)" stroke-width="1.5"></path>
        <path d="M502.89 664.18L380.03 493.79" stroke="rgba(255, 255, 255, 0.15)" stroke-width="1.5"></path>
        <path d="M688.78 233.27L688.78 233.27" stroke="rgba(255, 255, 255, 0.15)" stroke-width="1.5"></path>
        <path d="M688.78 233.27L655.44 374.5" stroke="rgba(255, 255, 255, 0.15)" stroke-width="1.5"></path>
        <path d="M688.78 233.27L838.69 231.21" stroke="rgba(255, 255, 255, 0.15)" stroke-width="1.5"></path>
        <path d="M688.78 233.27L823.4 379.69" stroke="rgba(255, 255, 255, 0.15)" stroke-width="1.5"></path>
        <path d="M655.44 374.5L655.44 374.5" stroke="rgba(255, 255, 255, 0.15)" stroke-width="1.5"></path>
        <path d="M655.44 374.5L823.4 379.69" stroke="rgba(255, 255, 255, 0.15)" stroke-width="1.5"></path>
        <path d="M655.44 374.5L798.23 529.37" stroke="rgba(255, 255, 255, 0.15)" stroke-width="1.5"></path>
        <path d="M655.44 374.5L838.69 231.21" stroke="rgba(255, 255, 255, 0.15)" stroke-width="1.5"></path>
        <path d="M637.52 699.27L637.52 699.27" stroke="rgba(255, 255, 255, 0.15)" stroke-width="1.5"></path>
        <path d="M637.52 699.27L854.55 680.58" stroke="rgba(255, 255, 255, 0.15)" stroke-width="1.5"></path>
        <path d="M851.59 67.02L851.59 67.02" stroke="rgba(255, 255, 255, 0.15)" stroke-width="1.5"></path>
        <path d="M851.59 67.02L968 77.74" stroke="rgba(255, 255, 255, 0.15)" stroke-width="1.5"></path>
        <path d="M851.59 67.02L838.69 231.21" stroke="rgba(255, 255, 255, 0.15)" stroke-width="1.5"></path>
        <path d="M851.59 67.02L955.54 -86.01" stroke="rgba(255, 255, 255, 0.15)" stroke-width="1.5"></path>
        <path d="M851.59 67.02L966.19 260.08" stroke="rgba(255, 255, 255, 0.15)" stroke-width="1.5"></path>
        <path d="M851.59 67.02L688.78 233.27" stroke="rgba(255, 255, 255, 0.15)" stroke-width="1.5"></path>
        <path d="M851.59 67.02L1092.58 42.84" stroke="rgba(255, 255, 255, 0.15)" stroke-width="1.5"></path>
        <path d="M838.69 231.21L838.69 231.21" stroke="rgba(255, 255, 255, 0.15)" stroke-width="1.5"></path>
        <path d="M838.69 231.21L966.19 260.08" stroke="rgba(255, 255, 255, 0.15)" stroke-width="1.5"></path>
        <path d="M838.69 231.21L823.4 379.69" stroke="rgba(255, 255, 255, 0.15)" stroke-width="1.5"></path>
        <path d="M823.4 379.69L823.4 379.69" stroke="rgba(255, 255, 255, 0.15)" stroke-width="1.5"></path>
        <path d="M823.4 379.69L961.59 349.38" stroke="rgba(255, 255, 255, 0.15)" stroke-width="1.5"></path>
        <path d="M798.23 529.37L798.23 529.37" stroke="rgba(255, 255, 255, 0.15)" stroke-width="1.5"></path>
        <path d="M798.23 529.37L823.4 379.69" stroke="rgba(255, 255, 255, 0.15)" stroke-width="1.5"></path>
        <path d="M798.23 529.37L854.55 680.58" stroke="rgba(255, 255, 255, 0.15)" stroke-width="1.5"></path>
        <path d="M798.23 529.37L975.09 502.97" stroke="rgba(255, 255, 255, 0.15)" stroke-width="1.5"></path>
        <path d="M798.23 529.37L637.52 699.27" stroke="rgba(255, 255, 255, 0.15)" stroke-width="1.5"></path>
        <path d="M798.23 529.37L961.59 349.38" stroke="rgba(255, 255, 255, 0.15)" stroke-width="1.5"></path>
        <path d="M854.55 680.58L854.55 680.58" stroke="rgba(255, 255, 255, 0.15)" stroke-width="1.5"></path>
        <path d="M854.55 680.58L1006.54 704.76" stroke="rgba(255, 255, 255, 0.15)" stroke-width="1.5"></path>
        <path d="M854.55 680.58L975.09 502.97" stroke="rgba(255, 255, 255, 0.15)" stroke-width="1.5"></path>
        <path d="M955.54 -86.01L955.54 -86.01" stroke="rgba(255, 255, 255, 0.15)" stroke-width="1.5"></path>
        <path d="M955.54 -86.01L1104.08 -42.77" stroke="rgba(255, 255, 255, 0.15)" stroke-width="1.5"></path>
        <path d="M955.54 -86.01L968 77.74" stroke="rgba(255, 255, 255, 0.15)" stroke-width="1.5"></path>
        <path d="M968 77.74L968 77.74" stroke="rgba(255, 255, 255, 0.15)" stroke-width="1.5"></path>
        <path d="M968 77.74L1092.58 42.84" stroke="rgba(255, 255, 255, 0.15)" stroke-width="1.5"></path>
        <path d="M966.19 260.08L966.19 260.08" stroke="rgba(255, 255, 255, 0.15)" stroke-width="1.5"></path>
        <path d="M966.19 260.08L961.59 349.38" stroke="rgba(255, 255, 255, 0.15)" stroke-width="1.5"></path>
        <path d="M966.19 260.08L968 77.74" stroke="rgba(255, 255, 255, 0.15)" stroke-width="1.5"></path>
        <path d="M961.59 349.38L961.59 349.38" stroke="rgba(255, 255, 255, 0.15)" stroke-width="1.5"></path>
        <path d="M961.59 349.38L1091.38 408.64" stroke="rgba(255, 255, 255, 0.15)" stroke-width="1.5"></path>
        <path d="M961.59 349.38L975.09 502.97" stroke="rgba(255, 255, 255, 0.15)" stroke-width="1.5"></path>
        <path d="M975.09 502.97L975.09 502.97" stroke="rgba(255, 255, 255, 0.15)" stroke-width="1.5"></path>
        <path d="M975.09 502.97L1091.38 408.64" stroke="rgba(255, 255, 255, 0.15)" stroke-width="1.5"></path>
        <path d="M975.09 502.97L823.4 379.69" stroke="rgba(255, 255, 255, 0.15)" stroke-width="1.5"></path>
        <path d="M975.09 502.97L1006.54 704.76" stroke="rgba(255, 255, 255, 0.15)" stroke-width="1.5"></path>
        <path d="M1006.54 704.76L1006.54 704.76" stroke="rgba(255, 255, 255, 0.15)" stroke-width="1.5"></path>
        <path d="M1006.54 704.76L1109.1 671.49" stroke="rgba(255, 255, 255, 0.15)" stroke-width="1.5"></path>
        <path d="M1104.08 -42.77L1104.08 -42.77" stroke="rgba(255, 255, 255, 0.15)" stroke-width="1.5"></path>
        <path d="M1104.08 -42.77L1092.58 42.84" stroke="rgba(255, 255, 255, 0.15)" stroke-width="1.5"></path>
        <path d="M1104.08 -42.77L968 77.74" stroke="rgba(255, 255, 255, 0.15)" stroke-width="1.5"></path>
        <path d="M1104.08 -42.77L1239.13 108.21" stroke="rgba(255, 255, 255, 0.15)" stroke-width="1.5"></path>
        <path d="M1092.58 42.84L1092.58 42.84" stroke="rgba(255, 255, 255, 0.15)" stroke-width="1.5"></path>
        <path d="M1092.58 42.84L1239.13 108.21" stroke="rgba(255, 255, 255, 0.15)" stroke-width="1.5"></path>
        <path d="M1092.58 42.84L1159.58 212.29" stroke="rgba(255, 255, 255, 0.15)" stroke-width="1.5"></path>
        <path d="M1092.58 42.84L955.54 -86.01" stroke="rgba(255, 255, 255, 0.15)" stroke-width="1.5"></path>
        <path d="M1159.58 212.29L1159.58 212.29" stroke="rgba(255, 255, 255, 0.15)" stroke-width="1.5"></path>
        <path d="M1159.58 212.29L1239.13 108.21" stroke="rgba(255, 255, 255, 0.15)" stroke-width="1.5"></path>
        <path d="M1159.58 212.29L1311.31 189.55" stroke="rgba(255, 255, 255, 0.15)" stroke-width="1.5"></path>
        <path d="M1159.58 212.29L1245.36 380.65" stroke="rgba(255, 255, 255, 0.15)" stroke-width="1.5"></path>
        <path d="M1091.38 408.64L1091.38 408.64" stroke="rgba(255, 255, 255, 0.15)" stroke-width="1.5"></path>
        <path d="M1091.38 408.64L1245.36 380.65" stroke="rgba(255, 255, 255, 0.15)" stroke-width="1.5"></path>
        <path d="M1091.38 408.64L966.19 260.08" stroke="rgba(255, 255, 255, 0.15)" stroke-width="1.5"></path>
        <path d="M1091.38 408.64L1279.24 497.12" stroke="rgba(255, 255, 255, 0.15)" stroke-width="1.5"></path>
        <path d="M1109.1 671.49L1109.1 671.49" stroke="rgba(255, 255, 255, 0.15)" stroke-width="1.5"></path>
        <path d="M1109.1 671.49L1253.9 693.3" stroke="rgba(255, 255, 255, 0.15)" stroke-width="1.5"></path>
        <path d="M1109.1 671.49L975.09 502.97" stroke="rgba(255, 255, 255, 0.15)" stroke-width="1.5"></path>
        <path d="M1109.1 671.49L1279.24 497.12" stroke="rgba(255, 255, 255, 0.15)" stroke-width="1.5"></path>
        <path d="M1109.1 671.49L854.55 680.58" stroke="rgba(255, 255, 255, 0.15)" stroke-width="1.5"></path>
        <path d="M1309.19 -90.59L1309.19 -90.59" stroke="rgba(255, 255, 255, 0.15)" stroke-width="1.5"></path>
        <path d="M1309.19 -90.59L1441.53 -54.78" stroke="rgba(255, 255, 255, 0.15)" stroke-width="1.5"></path>
        <path d="M1309.19 -90.59L1104.08 -42.77" stroke="rgba(255, 255, 255, 0.15)" stroke-width="1.5"></path>
        <path d="M1309.19 -90.59L1239.13 108.21" stroke="rgba(255, 255, 255, 0.15)" stroke-width="1.5"></path>
        <path d="M1239.13 108.21L1239.13 108.21" stroke="rgba(255, 255, 255, 0.15)" stroke-width="1.5"></path>
        <path d="M1239.13 108.21L1311.31 189.55" stroke="rgba(255, 255, 255, 0.15)" stroke-width="1.5"></path>
        <path d="M1311.31 189.55L1311.31 189.55" stroke="rgba(255, 255, 255, 0.15)" stroke-width="1.5"></path>
        <path d="M1311.31 189.55L1423.81 194.77" stroke="rgba(255, 255, 255, 0.15)" stroke-width="1.5"></path>
        <path d="M1245.36 380.65L1245.36 380.65" stroke="rgba(255, 255, 255, 0.15)" stroke-width="1.5"></path>
        <path d="M1245.36 380.65L1279.24 497.12" stroke="rgba(255, 255, 255, 0.15)" stroke-width="1.5"></path>
        <path d="M1245.36 380.65L1393.29 372.26" stroke="rgba(255, 255, 255, 0.15)" stroke-width="1.5"></path>
        <path d="M1279.24 497.12L1279.24 497.12" stroke="rgba(255, 255, 255, 0.15)" stroke-width="1.5"></path>
        <path d="M1279.24 497.12L1393.29 372.26" stroke="rgba(255, 255, 255, 0.15)" stroke-width="1.5"></path>
        <path d="M1279.24 497.12L1253.9 693.3" stroke="rgba(255, 255, 255, 0.15)" stroke-width="1.5"></path>
        <path d="M1279.24 497.12L1445.87 700.48" stroke="rgba(255, 255, 255, 0.15)" stroke-width="1.5"></path>
        <path d="M1253.9 693.3L1253.9 693.3" stroke="rgba(255, 255, 255, 0.15)" stroke-width="1.5"></path>
        <path d="M1253.9 693.3L1445.87 700.48" stroke="rgba(255, 255, 255, 0.15)" stroke-width="1.5"></path>
        <path d="M1441.53 -54.78L1441.53 -54.78" stroke="rgba(255, 255, 255, 0.15)" stroke-width="1.5"></path>
        <path d="M1441.53 -54.78L1585.36 -95.56" stroke="rgba(255, 255, 255, 0.15)" stroke-width="1.5"></path>
        <path d="M1457.79 95.38L1457.79 95.38" stroke="rgba(255, 255, 255, 0.15)" stroke-width="1.5"></path>
        <path d="M1457.79 95.38L1423.81 194.77" stroke="rgba(255, 255, 255, 0.15)" stroke-width="1.5"></path>
        <path d="M1457.79 95.38L1441.53 -54.78" stroke="rgba(255, 255, 255, 0.15)" stroke-width="1.5"></path>
        <path d="M1457.79 95.38L1311.31 189.55" stroke="rgba(255, 255, 255, 0.15)" stroke-width="1.5"></path>
        <path d="M1457.79 95.38L1610.89 237.43" stroke="rgba(255, 255, 255, 0.15)" stroke-width="1.5"></path>
        <path d="M1423.81 194.77L1423.81 194.77" stroke="rgba(255, 255, 255, 0.15)" stroke-width="1.5"></path>
        <path d="M1393.29 372.26L1393.29 372.26" stroke="rgba(255, 255, 255, 0.15)" stroke-width="1.5"></path>
        <path d="M1445.87 700.48L1445.87 700.48" stroke="rgba(255, 255, 255, 0.15)" stroke-width="1.5"></path>
        <path d="M1445.87 700.48L1607.06 694.02" stroke="rgba(255, 255, 255, 0.15)" stroke-width="1.5"></path>
        <path d="M1445.87 700.48L1545.84 528.98" stroke="rgba(255, 255, 255, 0.15)" stroke-width="1.5"></path>
        <path d="M1585.36 -95.56L1585.36 -95.56" stroke="rgba(255, 255, 255, 0.15)" stroke-width="1.5"></path>
        <path d="M1585.36 -95.56L1457.79 95.38" stroke="rgba(255, 255, 255, 0.15)" stroke-width="1.5"></path>
        <path d="M1585.36 -95.56L1309.19 -90.59" stroke="rgba(255, 255, 255, 0.15)" stroke-width="1.5"></path>
        <path d="M1585.36 -95.56L1423.81 194.77" stroke="rgba(255, 255, 255, 0.15)" stroke-width="1.5"></path>
        <path d="M1610.89 237.43L1610.89 237.43" stroke="rgba(255, 255, 255, 0.15)" stroke-width="1.5"></path>
        <path d="M1610.89 237.43L1588.41 410.4" stroke="rgba(255, 255, 255, 0.15)" stroke-width="1.5"></path>
        <path d="M1610.89 237.43L1423.81 194.77" stroke="rgba(255, 255, 255, 0.15)" stroke-width="1.5"></path>
        <path d="M1610.89 237.43L1393.29 372.26" stroke="rgba(255, 255, 255, 0.15)" stroke-width="1.5"></path>
        <path d="M1610.89 237.43L1545.84 528.98" stroke="rgba(255, 255, 255, 0.15)" stroke-width="1.5"></path>
        <path d="M1610.89 237.43L1311.31 189.55" stroke="rgba(255, 255, 255, 0.15)" stroke-width="1.5"></path>
        <path d="M1588.41 410.4L1588.41 410.4" stroke="rgba(255, 255, 255, 0.15)" stroke-width="1.5"></path>
        <path d="M1588.41 410.4L1545.84 528.98" stroke="rgba(255, 255, 255, 0.15)" stroke-width="1.5"></path>
        <path d="M1545.84 528.98L1545.84 528.98" stroke="rgba(255, 255, 255, 0.15)" stroke-width="1.5"></path>
        <path d="M1545.84 528.98L1607.06 694.02" stroke="rgba(255, 255, 255, 0.15)" stroke-width="1.5"></path>
        <path d="M1607.06 694.02L1607.06 694.02" stroke="rgba(255, 255, 255, 0.15)" stroke-width="1.5"></path>
        <circle r="5" cx="-112.26" cy="390.98" fill="rgba(255, 255, 255, 0.15)"></circle>
        <circle r="5" cx="-58.41" cy="507.55" fill="rgba(255, 255, 255, 0.15)"></circle>
        <circle r="5" cx="-99.75" cy="697.93" fill="rgba(255, 255, 255, 0.15)"></circle>
        <circle r="5" cx="66.16" cy="395.01" fill="rgba(255, 255, 255, 0.15)"></circle>
        <circle r="5" cx="63.91" cy="684.73" fill="rgba(255, 255, 255, 0.15)"></circle>
        <circle r="5" cx="201.59" cy="400.96" fill="rgba(255, 255, 255, 0.15)"></circle>
        <circle r="5" cx="253.01" cy="522.27" fill="rgba(255, 255, 255, 0.15)"></circle>
        <circle r="5" cx="249.25" cy="643.64" fill="rgba(255, 255, 255, 0.15)"></circle>
        <circle r="5" cx="380.03" cy="493.79" fill="rgba(255, 255, 255, 0.15)"></circle>
        <circle r="5" cx="377.6" cy="648.55" fill="rgba(255, 255, 255, 0.15)"></circle>
        <circle r="5" cx="521.96" cy="367.07" fill="rgba(255, 255, 255, 0.15)"></circle>
        <circle r="5" cx="497.51" cy="547.02" fill="rgba(255, 255, 255, 0.15)"></circle>
        <circle r="5" cx="502.89" cy="664.18" fill="rgba(255, 255, 255, 0.15)"></circle>
        <circle r="5" cx="688.78" cy="233.27" fill="rgba(255, 255, 255, 0.15)"></circle>
        <circle r="5" cx="655.44" cy="374.5" fill="rgba(255, 255, 255, 0.15)"></circle>
        <circle r="5" cx="637.52" cy="699.27" fill="rgba(255, 255, 255, 0.15)"></circle>
        <circle r="5" cx="851.59" cy="67.02" fill="rgba(255, 255, 255, 0.15)"></circle>
        <circle r="5" cx="838.69" cy="231.21" fill="rgba(255, 255, 255, 0.15)"></circle>
        <circle r="5" cx="823.4" cy="379.69" fill="rgba(255, 255, 255, 0.15)"></circle>
        <circle r="5" cx="798.23" cy="529.37" fill="rgba(255, 255, 255, 0.15)"></circle>
        <circle r="5" cx="854.55" cy="680.58" fill="rgba(255, 255, 255, 0.15)"></circle>
        <circle r="5" cx="955.54" cy="-86.01" fill="rgba(255, 255, 255, 0.15)"></circle>
        <circle r="5" cx="968" cy="77.74" fill="rgba(255, 255, 255, 0.15)"></circle>
        <circle r="5" cx="966.19" cy="260.08" fill="rgba(255, 255, 255, 0.15)"></circle>
        <circle r="5" cx="961.59" cy="349.38" fill="rgba(255, 255, 255, 0.15)"></circle>
        <circle r="5" cx="975.09" cy="502.97" fill="rgba(255, 255, 255, 0.15)"></circle>
        <circle r="5" cx="1006.54" cy="704.76" fill="rgba(255, 255, 255, 0.15)"></circle>
        <circle r="5" cx="1104.08" cy="-42.77" fill="rgba(255, 255, 255, 0.15)"></circle>
        <circle r="5" cx="1092.58" cy="42.84" fill="rgba(255, 255, 255, 0.15)"></circle>
        <circle r="5" cx="1159.58" cy="212.29" fill="rgba(255, 255, 255, 0.15)"></circle>
        <circle r="5" cx="1091.38" cy="408.64" fill="rgba(255, 255, 255, 0.15)"></circle>
        <circle r="5" cx="1109.1" cy="671.49" fill="rgba(255, 255, 255, 0.15)"></circle>
        <circle r="5" cx="1309.19" cy="-90.59" fill="rgba(255, 255, 255, 0.15)"></circle>
        <circle r="5" cx="1239.13" cy="108.21" fill="rgba(255, 255, 255, 0.15)"></circle>
        <circle r="5" cx="1311.31" cy="189.55" fill="rgba(255, 255, 255, 0.15)"></circle>
        <circle r="5" cx="1245.36" cy="380.65" fill="rgba(255, 255, 255, 0.15)"></circle>
        <circle r="5" cx="1279.24" cy="497.12" fill="rgba(255, 255, 255, 0.15)"></circle>
        <circle r="5" cx="1253.9" cy="693.3" fill="rgba(255, 255, 255, 0.15)"></circle>
        <circle r="5" cx="1441.53" cy="-54.78" fill="rgba(255, 255, 255, 0.15)"></circle>
        <circle r="5" cx="1457.79" cy="95.38" fill="rgba(255, 255, 255, 0.15)"></circle>
        <circle r="5" cx="1423.81" cy="194.77" fill="rgba(255, 255, 255, 0.15)"></circle>
        <circle r="5" cx="1393.29" cy="372.26" fill="rgba(255, 255, 255, 0.15)"></circle>
        <circle r="5" cx="1445.87" cy="700.48" fill="rgba(255, 255, 255, 0.15)"></circle>
        <circle r="5" cx="1585.36" cy="-95.56" fill="rgba(255, 255, 255, 0.15)"></circle>
        <circle r="5" cx="1610.89" cy="237.43" fill="rgba(255, 255, 255, 0.15)"></circle>
        <circle r="5" cx="1588.41" cy="410.4" fill="rgba(255, 255, 255, 0.15)"></circle>
        <circle r="5" cx="1545.84" cy="528.98" fill="rgba(255, 255, 255, 0.15)"></circle>
        <circle r="5" cx="1607.06" cy="694.02" fill="rgba(255, 255, 255, 0.15)"></circle>
        <path d="M545.79 692.95L545.79 692.95" stroke="hsla(0, 0%, 100%, 0.4)" stroke-width="1.5"></path>
        <path d="M545.79 692.95L398.75 673.98" stroke="hsla(0, 0%, 100%, 0.4)" stroke-width="1.5"></path>
        <path d="M545.79 692.95L500.37 533.16" stroke="hsla(0, 0%, 100%, 0.4)" stroke-width="1.5"></path>
        <path d="M545.79 692.95L706.75 641.69" stroke="hsla(0, 0%, 100%, 0.4)" stroke-width="1.5"></path>
        <path d="M545.79 692.95L685.57 552.92" stroke="hsla(0, 0%, 100%, 0.4)" stroke-width="1.5"></path>
        <path d="M999.67 258.11L999.67 258.11" stroke="hsla(0, 0%, 100%, 0.4)" stroke-width="1.5"></path>
        <path d="M999.67 258.11L948.01 357.89" stroke="hsla(0, 0%, 100%, 0.4)" stroke-width="1.5"></path>
        <path d="M999.67 258.11L1109.7 189.43" stroke="hsla(0, 0%, 100%, 0.4)" stroke-width="1.5"></path>
        <path d="M999.67 258.11L802.4 392.48" stroke="hsla(0, 0%, 100%, 0.4)" stroke-width="1.5"></path>
        <path d="M1393.39 488.36L1393.39 488.36" stroke="hsla(0, 0%, 100%, 0.4)" stroke-width="1.5"></path>
        <path d="M1393.39 488.36L1404.58 370.34" stroke="hsla(0, 0%, 100%, 0.4)" stroke-width="1.5"></path>
        <path d="M1399.89 646.93L1399.89 646.93" stroke="hsla(0, 0%, 100%, 0.4)" stroke-width="1.5"></path>
        <path d="M1399.89 646.93L1285.44 637.93" stroke="hsla(0, 0%, 100%, 0.4)" stroke-width="1.5"></path>
        <path d="M1399.89 646.93L1288.7 549.09" stroke="hsla(0, 0%, 100%, 0.4)" stroke-width="1.5"></path>
        <path d="M-45.93 555.47L-45.93 555.47" stroke="hsla(0, 0%, 100%, 0.4)" stroke-width="1.5"></path>
        <path d="M-45.93 555.47L-51.19 643.64" stroke="hsla(0, 0%, 100%, 0.4)" stroke-width="1.5"></path>
        <path d="M-45.93 555.47L55.46 545.27" stroke="hsla(0, 0%, 100%, 0.4)" stroke-width="1.5"></path>
        <path d="M-45.93 555.47L51.05 704.92" stroke="hsla(0, 0%, 100%, 0.4)" stroke-width="1.5"></path>
        <path d="M-45.93 555.47L213.14 542.26" stroke="hsla(0, 0%, 100%, 0.4)" stroke-width="1.5"></path>
        <path d="M-51.19 643.64L-51.19 643.64" stroke="hsla(0, 0%, 100%, 0.4)" stroke-width="1.5"></path>
        <path d="M-51.19 643.64L51.05 704.92" stroke="hsla(0, 0%, 100%, 0.4)" stroke-width="1.5"></path>
        <path d="M-51.19 643.64L55.46 545.27" stroke="hsla(0, 0%, 100%, 0.4)" stroke-width="1.5"></path>
        <path d="M-51.19 643.64L222.33 654.7" stroke="hsla(0, 0%, 100%, 0.4)" stroke-width="1.5"></path>
        <path d="M-51.19 643.64L213.14 542.26" stroke="hsla(0, 0%, 100%, 0.4)" stroke-width="1.5"></path>
        <path d="M-51.19 643.64L354.55 513.7" stroke="hsla(0, 0%, 100%, 0.4)" stroke-width="1.5"></path>
        <path d="M55.46 545.27L55.46 545.27" stroke="hsla(0, 0%, 100%, 0.4)" stroke-width="1.5"></path>
        <path d="M51.05 704.92L51.05 704.92" stroke="hsla(0, 0%, 100%, 0.4)" stroke-width="1.5"></path>
        <path d="M51.05 704.92L55.46 545.27" stroke="hsla(0, 0%, 100%, 0.4)" stroke-width="1.5"></path>
        <path d="M51.05 704.92L222.33 654.7" stroke="hsla(0, 0%, 100%, 0.4)" stroke-width="1.5"></path>
        <path d="M51.05 704.92L213.14 542.26" stroke="hsla(0, 0%, 100%, 0.4)" stroke-width="1.5"></path>
        <path d="M213.14 542.26L213.14 542.26" stroke="hsla(0, 0%, 100%, 0.4)" stroke-width="1.5"></path>
        <path d="M213.14 542.26L222.33 654.7" stroke="hsla(0, 0%, 100%, 0.4)" stroke-width="1.5"></path>
        <path d="M222.33 654.7L222.33 654.7" stroke="hsla(0, 0%, 100%, 0.4)" stroke-width="1.5"></path>
        <path d="M222.33 654.7L398.75 673.98" stroke="hsla(0, 0%, 100%, 0.4)" stroke-width="1.5"></path>
        <path d="M354.55 513.7L354.55 513.7" stroke="hsla(0, 0%, 100%, 0.4)" stroke-width="1.5"></path>
        <path d="M354.55 513.7L213.14 542.26" stroke="hsla(0, 0%, 100%, 0.4)" stroke-width="1.5"></path>
        <path d="M354.55 513.7L500.37 533.16" stroke="hsla(0, 0%, 100%, 0.4)" stroke-width="1.5"></path>
        <path d="M354.55 513.7L398.75 673.98" stroke="hsla(0, 0%, 100%, 0.4)" stroke-width="1.5"></path>
        <path d="M354.55 513.7L222.33 654.7" stroke="hsla(0, 0%, 100%, 0.4)" stroke-width="1.5"></path>
        <path d="M354.55 513.7L545.79 692.95" stroke="hsla(0, 0%, 100%, 0.4)" stroke-width="1.5"></path>
        <path d="M398.75 673.98L398.75 673.98" stroke="hsla(0, 0%, 100%, 0.4)" stroke-width="1.5"></path>
        <path d="M398.75 673.98L500.37 533.16" stroke="hsla(0, 0%, 100%, 0.4)" stroke-width="1.5"></path>
        <path d="M500.37 533.16L500.37 533.16" stroke="hsla(0, 0%, 100%, 0.4)" stroke-width="1.5"></path>
        <path d="M500.37 533.16L685.57 552.92" stroke="hsla(0, 0%, 100%, 0.4)" stroke-width="1.5"></path>
        <path d="M500.37 533.16L706.75 641.69" stroke="hsla(0, 0%, 100%, 0.4)" stroke-width="1.5"></path>
        <path d="M500.37 533.16L711.68 411.62" stroke="hsla(0, 0%, 100%, 0.4)" stroke-width="1.5"></path>
        <path d="M711.68 411.62L711.68 411.62" stroke="hsla(0, 0%, 100%, 0.4)" stroke-width="1.5"></path>
        <path d="M711.68 411.62L802.4 392.48" stroke="hsla(0, 0%, 100%, 0.4)" stroke-width="1.5"></path>
        <path d="M711.68 411.62L685.57 552.92" stroke="hsla(0, 0%, 100%, 0.4)" stroke-width="1.5"></path>
        <path d="M711.68 411.62L803.16 556.27" stroke="hsla(0, 0%, 100%, 0.4)" stroke-width="1.5"></path>
        <path d="M685.57 552.92L685.57 552.92" stroke="hsla(0, 0%, 100%, 0.4)" stroke-width="1.5"></path>
        <path d="M685.57 552.92L706.75 641.69" stroke="hsla(0, 0%, 100%, 0.4)" stroke-width="1.5"></path>
        <path d="M685.57 552.92L803.16 556.27" stroke="hsla(0, 0%, 100%, 0.4)" stroke-width="1.5"></path>
        <path d="M706.75 641.69L706.75 641.69" stroke="hsla(0, 0%, 100%, 0.4)" stroke-width="1.5"></path>
        <path d="M706.75 641.69L804.82 669.91" stroke="hsla(0, 0%, 100%, 0.4)" stroke-width="1.5"></path>
        <path d="M802.4 392.48L802.4 392.48" stroke="hsla(0, 0%, 100%, 0.4)" stroke-width="1.5"></path>
        <path d="M802.4 392.48L948.01 357.89" stroke="hsla(0, 0%, 100%, 0.4)" stroke-width="1.5"></path>
        <path d="M802.4 392.48L803.16 556.27" stroke="hsla(0, 0%, 100%, 0.4)" stroke-width="1.5"></path>
        <path d="M803.16 556.27L803.16 556.27" stroke="hsla(0, 0%, 100%, 0.4)" stroke-width="1.5"></path>
        <path d="M803.16 556.27L804.82 669.91" stroke="hsla(0, 0%, 100%, 0.4)" stroke-width="1.5"></path>
        <path d="M804.82 669.91L804.82 669.91" stroke="hsla(0, 0%, 100%, 0.4)" stroke-width="1.5"></path>
        <path d="M804.82 669.91L948.12 683.71" stroke="hsla(0, 0%, 100%, 0.4)" stroke-width="1.5"></path>
        <path d="M804.82 669.91L685.57 552.92" stroke="hsla(0, 0%, 100%, 0.4)" stroke-width="1.5"></path>
        <path d="M804.82 669.91L991.32 518.37" stroke="hsla(0, 0%, 100%, 0.4)" stroke-width="1.5"></path>
        <path d="M948.01 357.89L948.01 357.89" stroke="hsla(0, 0%, 100%, 0.4)" stroke-width="1.5"></path>
        <path d="M948.01 357.89L991.32 518.37" stroke="hsla(0, 0%, 100%, 0.4)" stroke-width="1.5"></path>
        <path d="M948.01 357.89L1109.7 189.43" stroke="hsla(0, 0%, 100%, 0.4)" stroke-width="1.5"></path>
        <path d="M991.32 518.37L991.32 518.37" stroke="hsla(0, 0%, 100%, 0.4)" stroke-width="1.5"></path>
        <path d="M991.32 518.37L1089.94 557.07" stroke="hsla(0, 0%, 100%, 0.4)" stroke-width="1.5"></path>
        <path d="M991.32 518.37L948.12 683.71" stroke="hsla(0, 0%, 100%, 0.4)" stroke-width="1.5"></path>
        <path d="M991.32 518.37L803.16 556.27" stroke="hsla(0, 0%, 100%, 0.4)" stroke-width="1.5"></path>
        <path d="M991.32 518.37L1103.81 677.76" stroke="hsla(0, 0%, 100%, 0.4)" stroke-width="1.5"></path>
        <path d="M991.32 518.37L802.4 392.48" stroke="hsla(0, 0%, 100%, 0.4)" stroke-width="1.5"></path>
        <path d="M948.12 683.71L948.12 683.71" stroke="hsla(0, 0%, 100%, 0.4)" stroke-width="1.5"></path>
        <path d="M948.12 683.71L1103.81 677.76" stroke="hsla(0, 0%, 100%, 0.4)" stroke-width="1.5"></path>
        <path d="M1155.29 -38.29L1155.29 -38.29" stroke="hsla(0, 0%, 100%, 0.4)" stroke-width="1.5"></path>
        <path d="M1155.29 -38.29L1268.84 -59.6" stroke="hsla(0, 0%, 100%, 0.4)" stroke-width="1.5"></path>
        <path d="M1155.29 -38.29L1248.46 78.24" stroke="hsla(0, 0%, 100%, 0.4)" stroke-width="1.5"></path>
        <path d="M1109.7 189.43L1109.7 189.43" stroke="hsla(0, 0%, 100%, 0.4)" stroke-width="1.5"></path>
        <path d="M1109.7 189.43L1237.77 204.13" stroke="hsla(0, 0%, 100%, 0.4)" stroke-width="1.5"></path>
        <path d="M1109.7 189.43L1248.46 78.24" stroke="hsla(0, 0%, 100%, 0.4)" stroke-width="1.5"></path>
        <path d="M1109.7 189.43L1155.29 -38.29" stroke="hsla(0, 0%, 100%, 0.4)" stroke-width="1.5"></path>
        <path d="M1109.7 189.43L1289.84 340.8" stroke="hsla(0, 0%, 100%, 0.4)" stroke-width="1.5"></path>
        <path d="M1089.94 557.07L1089.94 557.07" stroke="hsla(0, 0%, 100%, 0.4)" stroke-width="1.5"></path>
        <path d="M1089.94 557.07L1103.81 677.76" stroke="hsla(0, 0%, 100%, 0.4)" stroke-width="1.5"></path>
        <path d="M1103.81 677.76L1103.81 677.76" stroke="hsla(0, 0%, 100%, 0.4)" stroke-width="1.5"></path>
        <path d="M1268.84 -59.6L1268.84 -59.6" stroke="hsla(0, 0%, 100%, 0.4)" stroke-width="1.5"></path>
        <path d="M1268.84 -59.6L1248.46 78.24" stroke="hsla(0, 0%, 100%, 0.4)" stroke-width="1.5"></path>
        <path d="M1268.84 -59.6L1438.29 -106.7" stroke="hsla(0, 0%, 100%, 0.4)" stroke-width="1.5"></path>
        <path d="M1268.84 -59.6L1430.81 103.24" stroke="hsla(0, 0%, 100%, 0.4)" stroke-width="1.5"></path>
        <path d="M1268.84 -59.6L1237.77 204.13" stroke="hsla(0, 0%, 100%, 0.4)" stroke-width="1.5"></path>
        <path d="M1248.46 78.24L1248.46 78.24" stroke="hsla(0, 0%, 100%, 0.4)" stroke-width="1.5"></path>
        <path d="M1248.46 78.24L1237.77 204.13" stroke="hsla(0, 0%, 100%, 0.4)" stroke-width="1.5"></path>
        <path d="M1248.46 78.24L1430.81 103.24" stroke="hsla(0, 0%, 100%, 0.4)" stroke-width="1.5"></path>
        <path d="M1248.46 78.24L1397.73 199.99" stroke="hsla(0, 0%, 100%, 0.4)" stroke-width="1.5"></path>
        <path d="M1237.77 204.13L1237.77 204.13" stroke="hsla(0, 0%, 100%, 0.4)" stroke-width="1.5"></path>
        <path d="M1289.84 340.8L1289.84 340.8" stroke="hsla(0, 0%, 100%, 0.4)" stroke-width="1.5"></path>
        <path d="M1289.84 340.8L1404.58 370.34" stroke="hsla(0, 0%, 100%, 0.4)" stroke-width="1.5"></path>
        <path d="M1289.84 340.8L1237.77 204.13" stroke="hsla(0, 0%, 100%, 0.4)" stroke-width="1.5"></path>
        <path d="M1289.84 340.8L1397.73 199.99" stroke="hsla(0, 0%, 100%, 0.4)" stroke-width="1.5"></path>
        <path d="M1288.7 549.09L1288.7 549.09" stroke="hsla(0, 0%, 100%, 0.4)" stroke-width="1.5"></path>
        <path d="M1288.7 549.09L1285.44 637.93" stroke="hsla(0, 0%, 100%, 0.4)" stroke-width="1.5"></path>
        <path d="M1288.7 549.09L1393.39 488.36" stroke="hsla(0, 0%, 100%, 0.4)" stroke-width="1.5"></path>
        <path d="M1288.7 549.09L1089.94 557.07" stroke="hsla(0, 0%, 100%, 0.4)" stroke-width="1.5"></path>
        <path d="M1288.7 549.09L1289.84 340.8" stroke="hsla(0, 0%, 100%, 0.4)" stroke-width="1.5"></path>
        <path d="M1285.44 637.93L1285.44 637.93" stroke="hsla(0, 0%, 100%, 0.4)" stroke-width="1.5"></path>
        <path d="M1285.44 637.93L1393.39 488.36" stroke="hsla(0, 0%, 100%, 0.4)" stroke-width="1.5"></path>
        <path d="M1285.44 637.93L1103.81 677.76" stroke="hsla(0, 0%, 100%, 0.4)" stroke-width="1.5"></path>
        <path d="M1285.44 637.93L1089.94 557.07" stroke="hsla(0, 0%, 100%, 0.4)" stroke-width="1.5"></path>
        <path d="M1438.29 -106.7L1438.29 -106.7" stroke="hsla(0, 0%, 100%, 0.4)" stroke-width="1.5"></path>
        <path d="M1438.29 -106.7L1579.19 -66.86" stroke="hsla(0, 0%, 100%, 0.4)" stroke-width="1.5"></path>
        <path d="M1438.29 -106.7L1570.89 51.4" stroke="hsla(0, 0%, 100%, 0.4)" stroke-width="1.5"></path>
        <path d="M1438.29 -106.7L1430.81 103.24" stroke="hsla(0, 0%, 100%, 0.4)" stroke-width="1.5"></path>
        <path d="M1438.29 -106.7L1248.46 78.24" stroke="hsla(0, 0%, 100%, 0.4)" stroke-width="1.5"></path>
        <path d="M1438.29 -106.7L1155.29 -38.29" stroke="hsla(0, 0%, 100%, 0.4)" stroke-width="1.5"></path>
        <path d="M1430.81 103.24L1430.81 103.24" stroke="hsla(0, 0%, 100%, 0.4)" stroke-width="1.5"></path>
        <path d="M1430.81 103.24L1397.73 199.99" stroke="hsla(0, 0%, 100%, 0.4)" stroke-width="1.5"></path>
        <path d="M1430.81 103.24L1570.89 51.4" stroke="hsla(0, 0%, 100%, 0.4)" stroke-width="1.5"></path>
        <path d="M1397.73 199.99L1397.73 199.99" stroke="hsla(0, 0%, 100%, 0.4)" stroke-width="1.5"></path>
        <path d="M1397.73 199.99L1237.77 204.13" stroke="hsla(0, 0%, 100%, 0.4)" stroke-width="1.5"></path>
        <path d="M1404.58 370.34L1404.58 370.34" stroke="hsla(0, 0%, 100%, 0.4)" stroke-width="1.5"></path>
        <path d="M1404.58 370.34L1397.73 199.99" stroke="hsla(0, 0%, 100%, 0.4)" stroke-width="1.5"></path>
        <path d="M1404.58 370.34L1588.96 364.66" stroke="hsla(0, 0%, 100%, 0.4)" stroke-width="1.5"></path>
        <path d="M1404.58 370.34L1288.7 549.09" stroke="hsla(0, 0%, 100%, 0.4)" stroke-width="1.5"></path>
        <path d="M1579.19 -66.86L1579.19 -66.86" stroke="hsla(0, 0%, 100%, 0.4)" stroke-width="1.5"></path>
        <path d="M1579.19 -66.86L1570.89 51.4" stroke="hsla(0, 0%, 100%, 0.4)" stroke-width="1.5"></path>
        <path d="M1570.89 51.4L1570.89 51.4" stroke="hsla(0, 0%, 100%, 0.4)" stroke-width="1.5"></path>
        <path d="M1593.92 247.69L1593.92 247.69" stroke="hsla(0, 0%, 100%, 0.4)" stroke-width="1.5"></path>
        <path d="M1593.92 247.69L1588.96 364.66" stroke="hsla(0, 0%, 100%, 0.4)" stroke-width="1.5"></path>
        <path d="M1593.92 247.69L1570.89 51.4" stroke="hsla(0, 0%, 100%, 0.4)" stroke-width="1.5"></path>
        <path d="M1593.92 247.69L1397.73 199.99" stroke="hsla(0, 0%, 100%, 0.4)" stroke-width="1.5"></path>
        <path d="M1593.92 247.69L1430.81 103.24" stroke="hsla(0, 0%, 100%, 0.4)" stroke-width="1.5"></path>
        <path d="M1588.96 364.66L1588.96 364.66" stroke="hsla(0, 0%, 100%, 0.4)" stroke-width="1.5"></path>
        <path d="M1588.96 364.66L1393.39 488.36" stroke="hsla(0, 0%, 100%, 0.4)" stroke-width="1.5"></path>
        <path d="M1572.13 658.99L1572.13 658.99" stroke="hsla(0, 0%, 100%, 0.4)" stroke-width="1.5"></path>
        <path d="M1572.13 658.99L1399.89 646.93" stroke="hsla(0, 0%, 100%, 0.4)" stroke-width="1.5"></path>
        <path d="M1572.13 658.99L1393.39 488.36" stroke="hsla(0, 0%, 100%, 0.4)" stroke-width="1.5"></path>
        <path d="M1572.13 658.99L1285.44 637.93" stroke="hsla(0, 0%, 100%, 0.4)" stroke-width="1.5"></path>
        <circle r="25" cx="545.79" cy="692.95" fill="url(#SvgjsRadialGradient1029)"></circle>
        <circle r="25" cx="999.67" cy="258.11" fill="url(#SvgjsRadialGradient1029)"></circle>
        <circle r="25" cx="1393.39" cy="488.36" fill="url(#SvgjsRadialGradient1029)"></circle>
        <circle r="25" cx="1399.89" cy="646.93" fill="url(#SvgjsRadialGradient1029)"></circle>
        <circle r="5" cx="-45.93" cy="555.47" fill="rgba(255, 255, 255, 0.7)"></circle>
        <circle r="5" cx="-51.19" cy="643.64" fill="rgba(255, 255, 255, 0.7)"></circle>
        <circle r="5" cx="55.46" cy="545.27" fill="rgba(255, 255, 255, 0.7)"></circle>
        <circle r="5" cx="51.05" cy="704.92" fill="rgba(255, 255, 255, 0.7)"></circle>
        <circle r="5" cx="213.14" cy="542.26" fill="rgba(255, 255, 255, 0.7)"></circle>
        <circle r="5" cx="222.33" cy="654.7" fill="rgba(255, 255, 255, 0.7)"></circle>
        <circle r="5" cx="354.55" cy="513.7" fill="rgba(255, 255, 255, 0.7)"></circle>
        <circle r="5" cx="398.75" cy="673.98" fill="rgba(255, 255, 255, 0.7)"></circle>
        <circle r="5" cx="500.37" cy="533.16" fill="rgba(255, 255, 255, 0.7)"></circle>
        <circle r="5" cx="711.68" cy="411.62" fill="rgba(255, 255, 255, 0.7)"></circle>
        <circle r="5" cx="685.57" cy="552.92" fill="rgba(255, 255, 255, 0.7)"></circle>
        <circle r="5" cx="706.75" cy="641.69" fill="rgba(255, 255, 255, 0.7)"></circle>
        <circle r="5" cx="802.4" cy="392.48" fill="rgba(255, 255, 255, 0.7)"></circle>
        <circle r="5" cx="803.16" cy="556.27" fill="rgba(255, 255, 255, 0.7)"></circle>
        <circle r="5" cx="804.82" cy="669.91" fill="rgba(255, 255, 255, 0.7)"></circle>
        <circle r="5" cx="948.01" cy="357.89" fill="rgba(255, 255, 255, 0.7)"></circle>
        <circle r="5" cx="991.32" cy="518.37" fill="rgba(255, 255, 255, 0.7)"></circle>
        <circle r="5" cx="948.12" cy="683.71" fill="rgba(255, 255, 255, 0.7)"></circle>
        <circle r="5" cx="1155.29" cy="-38.29" fill="rgba(255, 255, 255, 0.7)"></circle>
        <circle r="5" cx="1109.7" cy="189.43" fill="rgba(255, 255, 255, 0.7)"></circle>
        <circle r="5" cx="1089.94" cy="557.07" fill="rgba(255, 255, 255, 0.7)"></circle>
        <circle r="5" cx="1103.81" cy="677.76" fill="rgba(255, 255, 255, 0.7)"></circle>
        <circle r="5" cx="1268.84" cy="-59.6" fill="rgba(255, 255, 255, 0.7)"></circle>
        <circle r="5" cx="1248.46" cy="78.24" fill="rgba(255, 255, 255, 0.7)"></circle>
        <circle r="5" cx="1237.77" cy="204.13" fill="rgba(255, 255, 255, 0.7)"></circle>
        <circle r="5" cx="1289.84" cy="340.8" fill="rgba(255, 255, 255, 0.7)"></circle>
        <circle r="5" cx="1288.7" cy="549.09" fill="rgba(255, 255, 255, 0.7)"></circle>
        <circle r="5" cx="1285.44" cy="637.93" fill="rgba(255, 255, 255, 0.7)"></circle>
        <circle r="5" cx="1438.29" cy="-106.7" fill="rgba(255, 255, 255, 0.7)"></circle>
        <circle r="5" cx="1430.81" cy="103.24" fill="rgba(255, 255, 255, 0.7)"></circle>
        <circle r="5" cx="1397.73" cy="199.99" fill="rgba(255, 255, 255, 0.7)"></circle>
        <circle r="5" cx="1404.58" cy="370.34" fill="rgba(255, 255, 255, 0.7)"></circle>
        <circle r="5" cx="1579.19" cy="-66.86" fill="rgba(255, 255, 255, 0.7)"></circle>
        <circle r="5" cx="1570.89" cy="51.4" fill="rgba(255, 255, 255, 0.7)"></circle>
        <circle r="5" cx="1593.92" cy="247.69" fill="rgba(255, 255, 255, 0.7)"></circle>
        <circle r="5" cx="1588.96" cy="364.66" fill="rgba(255, 255, 255, 0.7)"></circle>
        <circle r="5" cx="1572.13" cy="658.99" fill="rgba(255, 255, 255, 0.7)"></circle>
    </g>
    <defs>
        <mask id="SvgjsMask1028">
            <rect width="1440" height="560" fill="#ffffff"></rect>
        </mask>
        <radialGradient id="SvgjsRadialGradient1029">
            <stop stop-color="#ffffff" offset="0.1"></stop>
            <stop stop-color="rgba(255, 255, 255, 0.4)" offset="0.2"></stop>
            <stop stop-color="rgba(255, 255, 255, 0)" offset="1"></stop>
        </radialGradient>
    </defs>
</svg>